<?xml version="1.0" encoding="utf-8"?>
<!-- Generator: Adobe Illustrator 16.0.3, SVG Export Plug-In . SVG Version: 6.00 Build 0)  -->
<!DOCTYPE svg PUBLIC "-//W3C//DTD SVG 1.1//EN" "http://www.w3.org/Graphics/SVG/1.1/DTD/svg11.dtd">
<svg version="1.1" id="Layer_2" xmlns="http://www.w3.org/2000/svg" xmlns:xlink="http://www.w3.org/1999/xlink" x="0px" y="0px"
	  viewBox="0 0 730 249.2" style="enable-background:new 0 0 730 249.2;" xml:space="preserve">
<!-- <style type="text/css">
<![CDATA[
	.st0{fill:none;stroke:#000000;stroke-width:0.5;}
	.st1{fill:#FFFFFF;}
]]>
</style> -->
<path class="st0" fill="none" stroke="#000000" stroke-width="0.5" d="M306.1,130.6"/>
<path class="st0" fill="none" stroke="#000000" stroke-width="0.5" d="M489.3,107.3"/>
<path class="st1" fill="#EEEEEE" d="M729.3,238.1c-2.4,23.9-55.5,5.8-62.2-22.3H523.8c-46.4,0-88.5,13.1-95.3,19c-12.8-12.8-33.1-29.9-48.3-31.2
	h286.2c-1.3-12.2,9.7-38.4,9.7-38.4c8.9-19.1,10.3-34.1-15-21l-18.8,44.2h-19.8l12.1-27.6c5.9-14.3,12.8-33.6-12.5-20.5l-22.8,48.1
	h-19.8l13.1-26.6c5.9-14.3,15.9-36.6-26.5-10.8c0,18.6-20.4,39-39,39c-18.6,0-20.2-15.1-20.2-15.1c-9,7.9-38.9,25.7-49.1,6
	c-4.5-9.1-2.7-15.9-2.7-15.9c-14.8,10.6-67,44.7-76.9,11c-1.5-4.2-1.9-18.2-1.9-18.2l-12.5,8.7c-5.2,16.5-21.8,23.4-33.2,23.4
	c-11.5,0-17.2-4.6-19.5-9.7c-2.3-5.2,0-7.4,3.4-10.3c3.4-2.9,6.9-1.7,11.5,2.3c4.6,4,16.6,2.9,19.5-4.6c2.9-7.4-1.1-18.9-9.5-26.1
	l-48.7,36.7c-15.1,27.3-26.9,46.6-36.9,59.9c-6.9,9.2-8.6,4.6-14.3-4c-5.7-8.6-18.3-22.9,2.9-35.5c0,0,27.8-17.5,38.4-28.1
	c9.3-9.3,12.7-40.1-5.7-40.1c-17.6,0-23.3,17.6-24.1,20.6c-1.3,4.9-2.1,13.1,7.4,18.3c7.9,4.3,2.3,11.5-13.2,11.5
	c-6.9,0-10.3-6.3-10.3-6.3c-12.6,13.9-41.8,25.2-49.8,5.7c-11.5,8.2-39.5,21.2-44.1-10.3c-4.6,3.4-10.3,6.3-16,3.4
	c-8.6,13.2-43.5,32.1-48.7-1.1c-5.1-33.1,10.6-67.3,10.6-67.3c-10.4,0.8-19.7,8.5-24.9,18.6c-8.6,18.3-63,85.5-58.4,26.9
	c5.7-28.6,40.4-40.7,54.3-52c8.9-11.7,13.8-25.4,8.3-31.3C51,59.4,37.4,74.4,32.2,81.8l-5.3,7.3c-3.6,6.7-19.5,2.3-14.1-5
	c5.3-7.3,29.6-37.6,61-37.6c19.7,0-1.8,47.8-1.8,47.8l18.4-4.5c16-38.9,50.6-90.5,74.5-89.8c12,0.3,13.7,19.3,13.7,19.3
	c0,30.9-40.2,67.8-77.2,81.6c-8.5,19.2-15.2,32.7-15.8,53.2c-0.6,20.5,8,20.2,12.5,20.3c3.7-0.2,8.9-0.3,10.2-5.1
	c-6-1.3-8.2-23.9,8.4-23.4c10.3,0.3,9.9,10.2,10.4,14.6c1,9.5,12,0.3,12,0.3c0.6-22.2,28.7-46,50.4-45.4c10.3,0.3,15.7,9.6,15.7,9.6
	l13.7-1.3l-16.6,40.1c-3.7,11.3,6.4,17.3,23.8,5.2c-2.8-22.3,9.4-53.3,51-52.1c17.7,0.5,24.8,17.2,21.9,38.2l49-36.3
	c5.8-3.8,7.4,0.8,3.8,5.8c-3.6,5,0.6,7.7,2.6,9.8c1.9,2.1,7.7,9.9,9.8,17.4c8.5,2,17.5-12.1,17.5-12.1c5.5-13,17.6-38.3,23.7-51.3
	c0.3-0.5,0.5-0.9,0.7-1.3h-48.1l8-14h47.8c19.8-35.7,28.8-49.3,41.4-48.9c11.8,0.3,11.2,30,5.7,48.9H730l-8,14H454.3
	c-13.3,20.7-48.2,54.1-59.4,59.7c-0.5,16.5-0.7,28.1,13.6,28.5c14.3,0.4,34.6-12.1,47.1-28.9c-7.9-4.8-9.5-17.7,0.8-27.4
	c10.3-9.7,27.4-0.4,27.1,12.2l6.8,0.2c3.4,0.1,5,4.7-2.6,11.9c-7.6,7.2-28.4,33.4-7.3,34c8.6,0.2,16.6-3,23.7-10.7
	c1.6-25.3,17.4-49.7,41.4-49.1c19.4,0.6,21.1,20.6,21.1,20.6l30.7-16.2c12.7-5.9,30-11.1,30.7,4.3l7.7-2.3
	c12.7-5.9,30-11.1,30.7,4.3l6.9-3.2c12.7-5.9,30-11.1,30.7,4.3c-1.1,12.8-2.9,16.1-6.6,24.6c-3.7,8.5-15.8,33.8-16.8,49.8
	C702.9,203.7,731.7,214.2,729.3,238.1z M448.3,49.6c-7.9,0-17.4,15.2-20.2,23.6h19C447.2,73.1,456.2,49.6,448.3,49.6z M405.7,123.9
	c2.3,1,28.3-27.1,33.7-36.8h-17.2C422.2,87.1,403.4,122.9,405.7,123.9z M520.2,159.2c2.3,22.8,24.5,8.7,27.8-4.2
	c-9.3-4.5-9.8-13.2-7.9-19.1C539.3,129.9,519.4,138.6,520.2,159.2z M109.6,85c21.9-5.8,62.6-45.1,45.2-56.1
	C137.4,17.9,109.6,85,109.6,85z M41.4,125.5c-17.3,4.6-32.9,23.4-24.1,29.5C24.5,160,41.4,125.5,41.4,125.5z M187.6,160.8
	c0,0,4.6-10.5,7.8-19.4c3.2-8.9-20.3-19.4-34.4,8.4C146.8,177.7,181.7,174.1,187.6,160.8z M706.5,230c8.3-8.3-15.7-14.9-22.9-15.3
	C682.8,218.5,698.2,238.3,706.5,230z M263.7,194c-3.6,1.9-27.9,17.9-21.2,24.7c3.2,3.2,7.3,2.2,11.4-4.1
	C258.1,208.4,263.7,194,263.7,194z"/>
</svg>
